# xmcd
#
# Track frame offsets:
#	150
#	15903
#	36020
#	58881
#	75108
#	87374
#	106412
#	129645
#	147607
#	169982
#	184924
#	207927
#	228403
#	242299
#
# Disc length: 3263 seconds
#
# Revision: 0
# Processed by: cddbd v1.5.1PL0 Copyright (c) Steve Scherf et al.
# Submitted via: dBpowerAMP V4.0
#
DISCID=b40cbd0e
DTITLE=Hot House - Stormy Monday Blues
DYEAR=1900
DGENRE=Blues
TTITLE0=Down The Dirty Road Blues
TTITLE1=Barbecue Bob
TTITLE2=Stormy Monday
TTITLE3=Presious Time
TTITLE4=Deep River Blues
TTITLE5=I Want Everyone To Like Me
TTITLE6=Travel With No End
TTITLE7=San Francisco Bay Blues
TTITLE8=Young Woman
TTITLE9=Bright Lights
TTITLE10=Hoochie Coochie Man
TTITLE11=Checkin' Up On My Baby
TTITLE12=Blue Suede Shoes
TTITLE13=Tom Waits Was Here
EXTD=
EXTT0=
EXTT1=
EXTT2=
EXTT3=
EXTT4=
EXTT5=
EXTT6=
EXTT7=
EXTT8=
EXTT9=
EXTT10=
EXTT11=
EXTT12=
EXTT13=
PLAYORDER=
